<svg width="19" height="53" viewBox="0 0 19 53" fill="none" xmlns="http://www.w3.org/2000/svg">
<path d="M3 3L8 5.61017V10L3 7.62712V3Z" fill="#0077B6"/>
<path d="M8 5.64706L19 0L8 10V5.64706Z" fill="#00B4D8"/>
<path d="M7 10H9L8.5 10.8H7.5L7 10Z" fill="#666666"/>
<path d="M16 45.5547L15.8203 45.6143C12.2718 46.7837 9.4456 49.5002 8.1377 53L8.09766 52.9102C6.54049 49.4378 3.60561 46.7719 0 45.5547L0.485352 43.1182L14.6494 38.791L16 45.5547ZM14.3193 37.1367L0.94043 40.8379L2.60547 32.4961L12.626 28.6514L14.3193 37.1367ZM12.2949 26.9902L3.06445 30.1973L4.80078 21.4971L10.7432 19.2178L12.2949 26.9902ZM10.3926 17.459L5.25 19.2451L6.89648 11H9.10352L10.3926 17.459Z" fill="#008080"/>
</svg>